<svg xmlns="http://www.w3.org/2000/svg" width="190.8" height="24.84" viewBox="0 0 190.8 24.84">
  <path id="logo" d="M15.408,0c4.572,0,6.984-2.88,6.984-6.48a5.819,5.819,0,0,0-4.608-5.9,5.334,5.334,0,0,0,4.14-5.508c0-3.2-2.34-6.12-6.912-6.12H2.376V0ZM13.9-14.4H7.488v-5.22H13.9A2.584,2.584,0,0,1,16.7-16.992,2.557,2.557,0,0,1,13.9-14.4Zm.18,9.972H7.488v-5.58h6.588a2.806,2.806,0,0,1,3.1,2.808C17.172-5.472,16.02-4.428,14.076-4.428ZM41.22.432c7.272,0,12.564-5.184,12.564-12.42s-5.292-12.42-12.564-12.42c-7.236,0-12.528,5.184-12.528,12.42S33.984.432,41.22.432Zm0-4.536c-4.428,0-7.272-3.42-7.272-7.884,0-4.5,2.844-7.884,7.272-7.884s7.308,3.384,7.308,7.884C48.528-7.524,45.648-4.1,41.22-4.1ZM71.82.432c7.308,0,10.836-4.068,10.836-10.044v-14.4h-5.22V-9.756c0,3.348-1.908,5.652-5.616,5.652s-5.652-2.3-5.652-5.652V-24.012H60.984V-9.576C60.984-3.672,64.512.432,71.82.432ZM112.464,0V-24.012h-5.112V-8.928L96.228-24.012H90.972V0h5.112V-15.66L107.532,0Zm19.98.432a11.059,11.059,0,0,0,10.044-5.9L138.1-7.6A6.439,6.439,0,0,1,132.444-4.1c-4.356,0-7.524-3.348-7.524-7.884s3.168-7.884,7.524-7.884A6.508,6.508,0,0,1,138.1-16.38l4.392-2.16a10.992,10.992,0,0,0-10.044-5.868c-7.2,0-12.78,5.04-12.78,12.42S125.244.432,132.444.432ZM166.14,0V-4.5H154.26V-9.936h11.628v-4.5H154.26v-5.076h11.88v-4.5H149.148V0Zm27.036,0-5.4-9.144a6.891,6.891,0,0,0,5.256-7.128c0-4.464-3.06-7.74-8.064-7.74H173.736V0h5.112V-8.532h3.744L187.308,0Zm-8.964-13.032h-5.364v-6.48h5.364c2.052,0,3.6,1.224,3.6,3.24S186.264-13.032,184.212-13.032Z" transform="translate(-2.376 24.408)" fill="#ff4252"/>
</svg>
